STARTFONT 2.1
COMMENT
COMMENT Converted from OpenType font "DSEG14Modern-Regular.ttf" by "otf2bdf 3.0".
COMMENT
FONT -FreeType-DSEG14 Modern-Medium-R-Normal--22-160-100-100-P-120-ISO10646-1
SIZE 16 100 100
FONTBOUNDINGBOX 17 22 -1 0
STARTPROPERTIES 19
FOUNDRY "FreeType"
FAMILY_NAME "DSEG14 Modern"
WEIGHT_NAME "Medium"
SLANT "R"
SETWIDTH_NAME "Normal"
ADD_STYLE_NAME ""
PIXEL_SIZE 22
POINT_SIZE 160
RESOLUTION_X 100
RESOLUTION_Y 100
SPACING "P"
AVERAGE_WIDTH 120
CHARSET_REGISTRY "ISO10646"
CHARSET_ENCODING "1"
FONT_ASCENT 22
FONT_DESCENT 0
COPYRIGHT "Created by Keshikan  with FontForge 2.0 (http://fontforge.sf.net)"
_OTF_FONTFILE "DSEG14Modern-Regular.ttf"
_OTF_PSNAME "DSEG14Modern-Regular"
ENDPROPERTIES
CHARS 93
STARTCHAR 0020
ENCODING 32
SWIDTH 180 0
DWIDTH 4 0
BBX 0 0 0 0
BITMAP
ENDCHAR
STARTCHAR 0021
ENCODING 33
SWIDTH 810 0
DWIDTH 18 0
BBX 0 0 0 0
BITMAP
ENDCHAR
STARTCHAR 0022
ENCODING 34
SWIDTH 810 0
DWIDTH 18 0
BBX 8 10 2 10
BITMAP
80
C3
C3
C3
C3
C3
C3
C0
C0
C0
ENDCHAR
STARTCHAR 0024
ENCODING 36
SWIDTH 810 0
DWIDTH 18 0
BBX 14 22 2 0
BITMAP
FFF8
BFF0
C300
C300
C300
C300
C300
C300
C000
C000
FCF0
3CFC
000C
000C
030C
030C
030C
030C
030C
030C
3FF4
7FFC
ENDCHAR
STARTCHAR 0025
ENCODING 37
SWIDTH 810 0
DWIDTH 18 0
BBX 14 20 2 1
BITMAP
8000
C000
D020
D020
D860
DCE0
CCC0
CCC0
C480
FCF0
3CFC
048C
0CCC
0CCC
1CEC
186C
102C
102C
000C
0004
ENDCHAR
STARTCHAR 0026
ENCODING 38
SWIDTH 810 0
DWIDTH 18 0
BBX 14 22 2 0
BITMAP
FFF8
3FF0
0000
1020
1020
1860
1CE0
0CC0
0CC0
0480
0000
000C
048C
0CCC
0CCC
1CEC
186C
102C
102C
000C
3FF4
7FFC
ENDCHAR
STARTCHAR 0027
ENCODING 39
SWIDTH 810 0
DWIDTH 18 0
BBX 2 6 8 12
BITMAP
C0
C0
C0
C0
C0
C0
ENDCHAR
STARTCHAR 0028
ENCODING 40
SWIDTH 810 0
DWIDTH 18 0
BBX 3 16 10 3
BITMAP
20
20
60
E0
C0
C0
80
00
00
80
C0
C0
E0
60
20
20
ENDCHAR
STARTCHAR 0029
ENCODING 41
SWIDTH 810 0
DWIDTH 18 0
BBX 3 16 5 3
BITMAP
80
80
C0
E0
60
60
20
00
00
20
60
60
E0
C0
80
80
ENDCHAR
STARTCHAR 002A
ENCODING 42
SWIDTH 810 0
DWIDTH 18 0
BBX 10 18 4 2
BITMAP
0C00
4C80
4C80
6D80
7F80
3F00
3300
1200
F3C0
F3C0
1200
3300
3F00
7F80
6D80
4C80
4C80
0C00
ENDCHAR
STARTCHAR 002B
ENCODING 43
SWIDTH 810 0
DWIDTH 18 0
BBX 10 18 4 2
BITMAP
0C00
0C00
0C00
0C00
0C00
0C00
0000
0000
F3C0
F3C0
0000
0000
0C00
0C00
0C00
0C00
0C00
0C00
ENDCHAR
STARTCHAR 002C
ENCODING 44
SWIDTH 810 0
DWIDTH 18 0
BBX 3 7 5 3
BITMAP
20
60
60
E0
C0
80
80
ENDCHAR
STARTCHAR 002D
ENCODING 45
SWIDTH 810 0
DWIDTH 18 0
BBX 10 2 4 10
BITMAP
F3C0
F3C0
ENDCHAR
STARTCHAR 002E
ENCODING 46
SWIDTH 0 0
DWIDTH 0 0
BBX 2 3 -1 0
BITMAP
C0
C0
C0
ENDCHAR
STARTCHAR 002F
ENCODING 47
SWIDTH 810 0
DWIDTH 18 0
BBX 8 16 5 3
BITMAP
01
01
03
07
06
06
04
00
00
20
60
60
E0
C0
80
80
ENDCHAR
STARTCHAR 0030
ENCODING 48
SWIDTH 810 0
DWIDTH 18 0
BBX 14 22 2 0
BITMAP
FFFC
BFF4
C00C
C02C
C02C
C06C
C0EC
C0CC
C0CC
C08C
C000
000C
C40C
CC0C
CC0C
DC0C
D80C
D00C
D00C
C00C
BFF4
FFFC
ENDCHAR
STARTCHAR 0031
ENCODING 49
SWIDTH 810 0
DWIDTH 18 0
BBX 2 21 14 1
BITMAP
40
40
C0
C0
C0
C0
C0
C0
C0
C0
00
C0
C0
C0
C0
C0
C0
C0
C0
C0
40
ENDCHAR
STARTCHAR 0032
ENCODING 50
SWIDTH 810 0
DWIDTH 18 0
BBX 14 22 2 0
BITMAP
FFFC
3FF4
000C
000C
000C
000C
000C
000C
000C
000C
3CF0
3CF0
C000
C000
C000
C000
C000
C000
C000
C000
BFF0
FFFC
ENDCHAR
STARTCHAR 0033
ENCODING 51
SWIDTH 810 0
DWIDTH 18 0
BBX 14 22 2 0
BITMAP
FFFC
3FF4
000C
000C
000C
000C
000C
000C
000C
000C
3CF0
3CFC
000C
000C
000C
000C
000C
000C
000C
000C
3FF4
7FFC
ENDCHAR
STARTCHAR 0034
ENCODING 52
SWIDTH 810 0
DWIDTH 18 0
BBX 14 21 2 1
BITMAP
0004
8004
C00C
C00C
C00C
C00C
C00C
C00C
C00C
C00C
FCF0
3CFC
000C
000C
000C
000C
000C
000C
000C
000C
0004
ENDCHAR
STARTCHAR 0035
ENCODING 53
SWIDTH 810 0
DWIDTH 18 0
BBX 14 22 2 0
BITMAP
FFF8
BFF0
C000
C000
C000
C000
C000
C000
C000
C000
FCF0
3CFC
000C
000C
000C
000C
000C
000C
000C
000C
3FF4
7FFC
ENDCHAR
STARTCHAR 0036
ENCODING 54
SWIDTH 810 0
DWIDTH 18 0
BBX 14 22 2 0
BITMAP
FFF8
BFF0
C000
C000
C000
C000
C000
C000
C000
C000
FCF0
3CFC
C00C
C00C
C00C
C00C
C00C
C00C
C00C
C00C
BFF4
FFFC
ENDCHAR
STARTCHAR 0037
ENCODING 55
SWIDTH 810 0
DWIDTH 18 0
BBX 14 21 2 1
BITMAP
FFFC
BFF4
C00C
C00C
C00C
C00C
C00C
C00C
C00C
C00C
C000
000C
000C
000C
000C
000C
000C
000C
000C
000C
0004
ENDCHAR
STARTCHAR 0038
ENCODING 56
SWIDTH 810 0
DWIDTH 18 0
BBX 14 22 2 0
BITMAP
FFFC
BFF4
C00C
C00C
C00C
C00C
C00C
C00C
C00C
C00C
FCF0
3CFC
C00C
C00C
C00C
C00C
C00C
C00C
C00C
C00C
BFF4
FFFC
ENDCHAR
STARTCHAR 0039
ENCODING 57
SWIDTH 810 0
DWIDTH 18 0
BBX 14 22 2 0
BITMAP
FFFC
BFF4
C00C
C00C
C00C
C00C
C00C
C00C
C00C
C00C
FCF0
3CFC
000C
000C
000C
000C
000C
000C
000C
000C
3FF4
7FFC
ENDCHAR
STARTCHAR 003A
ENCODING 58
SWIDTH 180 0
DWIDTH 4 0
BBX 3 12 1 5
BITMAP
40
E0
C0
00
00
00
00
00
00
40
E0
C0
ENDCHAR
STARTCHAR 003C
ENCODING 60
SWIDTH 810 0
DWIDTH 18 0
BBX 13 19 3 1
BITMAP
0040
0040
00C0
01C0
0180
0180
0100
0000
0000
0800
1800
1800
3800
3000
2000
2000
0000
7FE0
FFF8
ENDCHAR
STARTCHAR 003D
ENCODING 61
SWIDTH 810 0
DWIDTH 18 0
BBX 13 12 3 0
BITMAP
79E0
79E0
0000
0000
0000
0000
0000
0000
0000
0000
7FE0
FFF8
ENDCHAR
STARTCHAR 003E
ENCODING 62
SWIDTH 810 0
DWIDTH 18 0
BBX 13 19 3 1
BITMAP
2000
2000
3000
3800
1800
1800
0800
0000
0000
0100
0180
0180
01C0
00C0
0040
0040
0000
7FE0
FFF8
ENDCHAR
STARTCHAR 003F
ENCODING 63
SWIDTH 810 0
DWIDTH 18 0
BBX 14 20 2 2
BITMAP
FFFC
BFF4
C00C
C00C
C00C
C00C
C00C
C00C
C00C
C00C
C0F0
00F0
0000
0000
0300
0300
0300
0300
0300
0300
ENDCHAR
STARTCHAR 0040
ENCODING 64
SWIDTH 810 0
DWIDTH 18 0
BBX 14 22 2 0
BITMAP
FFFC
BFF4
C00C
C00C
C00C
C00C
C00C
C00C
C00C
C00C
C0F0
00FC
C00C
C00C
C30C
C30C
C30C
C30C
C30C
C30C
BFF4
FFFC
ENDCHAR
STARTCHAR 0041
ENCODING 65
SWIDTH 810 0
DWIDTH 18 0
BBX 14 22 2 0
BITMAP
FFFC
BFF4
C00C
C00C
C00C
C00C
C00C
C00C
C00C
C00C
FCF0
3CFC
C00C
C00C
C00C
C00C
C00C
C00C
C00C
C00C
8004
8000
ENDCHAR
STARTCHAR 0042
ENCODING 66
SWIDTH 810 0
DWIDTH 18 0
BBX 14 22 2 0
BITMAP
FFFC
3FF4
030C
030C
030C
030C
030C
030C
000C
000C
00F0
00FC
000C
000C
030C
030C
030C
030C
030C
030C
3FF4
7FFC
ENDCHAR
STARTCHAR 0043
ENCODING 67
SWIDTH 810 0
DWIDTH 18 0
BBX 14 22 2 0
BITMAP
FFF8
BFF0
C000
C000
C000
C000
C000
C000
C000
C000
C000
0000
C000
C000
C000
C000
C000
C000
C000
C000
BFF0
FFFC
ENDCHAR
STARTCHAR 0044
ENCODING 68
SWIDTH 810 0
DWIDTH 18 0
BBX 14 22 2 0
BITMAP
FFFC
3FF4
030C
030C
030C
030C
030C
030C
000C
000C
0000
000C
000C
000C
030C
030C
030C
030C
030C
030C
3FF4
7FFC
ENDCHAR
STARTCHAR 0045
ENCODING 69
SWIDTH 810 0
DWIDTH 18 0
BBX 14 22 2 0
BITMAP
FFF8
BFF0
C000
C000
C000
C000
C000
C000
C000
C000
FCF0
3CF0
C000
C000
C000
C000
C000
C000
C000
C000
BFF0
FFFC
ENDCHAR
STARTCHAR 0046
ENCODING 70
SWIDTH 810 0
DWIDTH 18 0
BBX 13 22 2 0
BITMAP
FFF8
BFF0
C000
C000
C000
C000
C000
C000
C000
C000
FCF0
3CF0
C000
C000
C000
C000
C000
C000
C000
C000
8000
8000
ENDCHAR
STARTCHAR 0047
ENCODING 71
SWIDTH 810 0
DWIDTH 18 0
BBX 14 22 2 0
BITMAP
FFF8
BFF0
C000
C000
C000
C000
C000
C000
C000
C000
C0F0
00FC
C00C
C00C
C00C
C00C
C00C
C00C
C00C
C00C
BFF4
FFFC
ENDCHAR
STARTCHAR 0048
ENCODING 72
SWIDTH 810 0
DWIDTH 18 0
BBX 14 22 2 0
BITMAP
0004
8004
C00C
C00C
C00C
C00C
C00C
C00C
C00C
C00C
FCF0
3CFC
C00C
C00C
C00C
C00C
C00C
C00C
C00C
C00C
8004
8000
ENDCHAR
STARTCHAR 0049
ENCODING 73
SWIDTH 810 0
DWIDTH 18 0
BBX 14 22 2 0
BITMAP
FFF8
3FF0
0300
0300
0300
0300
0300
0300
0000
0000
0000
0000
0000
0000
0300
0300
0300
0300
0300
0300
3FF0
7FFC
ENDCHAR
STARTCHAR 004A
ENCODING 74
SWIDTH 810 0
DWIDTH 18 0
BBX 14 22 2 0
BITMAP
0004
0004
000C
000C
000C
000C
000C
000C
000C
000C
0000
000C
C00C
C00C
C00C
C00C
C00C
C00C
C00C
C00C
BFF4
FFFC
ENDCHAR
STARTCHAR 004B
ENCODING 75
SWIDTH 810 0
DWIDTH 18 0
BBX 11 21 2 0
BITMAP
8000
C000
C020
C020
C060
C0E0
C0C0
C0C0
C080
FC00
3C00
C080
C0C0
C0C0
C0E0
C060
C020
C020
C000
8000
8000
ENDCHAR
STARTCHAR 004C
ENCODING 76
SWIDTH 810 0
DWIDTH 18 0
BBX 14 21 2 0
BITMAP
8000
C000
C000
C000
C000
C000
C000
C000
C000
C000
0000
C000
C000
C000
C000
C000
C000
C000
C000
BFF0
FFFC
ENDCHAR
STARTCHAR 004D
ENCODING 77
SWIDTH 810 0
DWIDTH 18 0
BBX 14 22 2 0
BITMAP
0004
8004
C00C
D02C
D02C
D86C
DCEC
CCCC
CCCC
C48C
C000
000C
C00C
C00C
C30C
C30C
C30C
C30C
C30C
C30C
8004
8000
ENDCHAR
STARTCHAR 004E
ENCODING 78
SWIDTH 810 0
DWIDTH 18 0
BBX 14 22 2 0
BITMAP
0004
8004
C00C
D00C
D00C
D80C
DC0C
CC0C
CC0C
C40C
C000
000C
C08C
C0CC
C0CC
C0EC
C06C
C02C
C02C
C00C
8004
8000
ENDCHAR
STARTCHAR 004F
ENCODING 79
SWIDTH 810 0
DWIDTH 18 0
BBX 14 22 2 0
BITMAP
FFFC
BFF4
C00C
C00C
C00C
C00C
C00C
C00C
C00C
C00C
C000
000C
C00C
C00C
C00C
C00C
C00C
C00C
C00C
C00C
BFF4
FFFC
ENDCHAR
STARTCHAR 0050
ENCODING 80
SWIDTH 810 0
DWIDTH 18 0
BBX 14 22 2 0
BITMAP
FFFC
BFF4
C00C
C00C
C00C
C00C
C00C
C00C
C00C
C00C
FCF0
3CF0
C000
C000
C000
C000
C000
C000
C000
C000
8000
8000
ENDCHAR
STARTCHAR 0051
ENCODING 81
SWIDTH 810 0
DWIDTH 18 0
BBX 14 22 2 0
BITMAP
FFFC
BFF4
C00C
C00C
C00C
C00C
C00C
C00C
C00C
C00C
C000
000C
C08C
C0CC
C0CC
C0EC
C06C
C02C
C02C
C00C
BFF4
FFFC
ENDCHAR
STARTCHAR 0052
ENCODING 82
SWIDTH 810 0
DWIDTH 18 0
BBX 14 22 2 0
BITMAP
FFFC
BFF4
C00C
C00C
C00C
C00C
C00C
C00C
C00C
C00C
FCF0
3CF0
C080
C0C0
C0C0
C0E0
C060
C020
C020
C000
8000
8000
ENDCHAR
STARTCHAR 0053
ENCODING 83
SWIDTH 810 0
DWIDTH 18 0
BBX 14 22 2 0
BITMAP
FFF8
BFF0
C000
D000
D000
D800
DC00
CC00
CC00
C400
FCF0
3CFC
008C
00CC
00CC
00EC
006C
002C
002C
000C
3FF4
7FFC
ENDCHAR
STARTCHAR 0054
ENCODING 84
SWIDTH 810 0
DWIDTH 18 0
BBX 13 20 2 2
BITMAP
FFF8
3FF0
0300
0300
0300
0300
0300
0300
0000
0000
0000
0000
0000
0000
0300
0300
0300
0300
0300
0300
ENDCHAR
STARTCHAR 0055
ENCODING 85
SWIDTH 810 0
DWIDTH 18 0
BBX 14 22 2 0
BITMAP
0004
8004
C00C
C00C
C00C
C00C
C00C
C00C
C00C
C00C
C000
000C
C00C
C00C
C00C
C00C
C00C
C00C
C00C
C00C
BFF4
FFFC
ENDCHAR
STARTCHAR 0056
ENCODING 86
SWIDTH 810 0
DWIDTH 18 0
BBX 11 21 2 0
BITMAP
8000
C000
C020
C020
C060
C0E0
C0C0
C0C0
C080
C000
0000
C400
CC00
CC00
DC00
D800
D000
D000
C000
8000
8000
ENDCHAR
STARTCHAR 0057
ENCODING 87
SWIDTH 810 0
DWIDTH 18 0
BBX 14 22 2 0
BITMAP
0004
8004
C30C
C30C
C30C
C30C
C30C
C30C
C00C
C00C
C000
000C
C48C
CCCC
CCCC
DCEC
D86C
D02C
D02C
C00C
8004
8000
ENDCHAR
STARTCHAR 0058
ENCODING 88
SWIDTH 810 0
DWIDTH 18 0
BBX 8 16 5 3
BITMAP
81
81
C3
E7
66
66
24
00
00
24
66
66
E7
C3
81
81
ENDCHAR
STARTCHAR 0059
ENCODING 89
SWIDTH 810 0
DWIDTH 18 0
BBX 8 17 5 3
BITMAP
81
81
C3
E7
66
66
24
00
00
00
00
18
18
18
18
18
18
ENDCHAR
STARTCHAR 005A
ENCODING 90
SWIDTH 810 0
DWIDTH 18 0
BBX 14 22 2 0
BITMAP
FFF8
3FF0
0000
0020
0020
0060
00E0
00C0
00C0
0080
0000
0000
0400
0C00
0C00
1C00
1800
1000
1000
0000
3FF0
7FFC
ENDCHAR
STARTCHAR 005C
ENCODING 92
SWIDTH 810 0
DWIDTH 18 0
BBX 8 16 5 3
BITMAP
80
80
C0
E0
60
60
20
00
00
04
06
06
07
03
01
01
ENDCHAR
STARTCHAR 005E
ENCODING 94
SWIDTH 810 0
DWIDTH 18 0
BBX 6 10 2 10
BITMAP
80
C0
D0
D0
D8
DC
CC
CC
C4
C0
ENDCHAR
STARTCHAR 005F
ENCODING 95
SWIDTH 810 0
DWIDTH 18 0
BBX 13 2 3 0
BITMAP
7FE0
FFF8
ENDCHAR
STARTCHAR 0060
ENCODING 96
SWIDTH 810 0
DWIDTH 18 0
BBX 3 7 5 12
BITMAP
80
80
C0
E0
60
60
20
ENDCHAR
STARTCHAR 0061
ENCODING 97
SWIDTH 810 0
DWIDTH 18 0
BBX 14 22 2 0
BITMAP
FFFC
BFF4
C00C
C00C
C00C
C00C
C00C
C00C
C00C
C00C
FCF0
3CFC
C00C
C00C
C00C
C00C
C00C
C00C
C00C
C00C
8004
8000
ENDCHAR
STARTCHAR 0062
ENCODING 98
SWIDTH 810 0
DWIDTH 18 0
BBX 14 22 2 0
BITMAP
FFFC
3FF4
030C
030C
030C
030C
030C
030C
000C
000C
00F0
00FC
000C
000C
030C
030C
030C
030C
030C
030C
3FF4
7FFC
ENDCHAR
STARTCHAR 0063
ENCODING 99
SWIDTH 810 0
DWIDTH 18 0
BBX 14 22 2 0
BITMAP
FFF8
BFF0
C000
C000
C000
C000
C000
C000
C000
C000
C000
0000
C000
C000
C000
C000
C000
C000
C000
C000
BFF0
FFFC
ENDCHAR
STARTCHAR 0064
ENCODING 100
SWIDTH 810 0
DWIDTH 18 0
BBX 14 22 2 0
BITMAP
FFFC
3FF4
030C
030C
030C
030C
030C
030C
000C
000C
0000
000C
000C
000C
030C
030C
030C
030C
030C
030C
3FF4
7FFC
ENDCHAR
STARTCHAR 0065
ENCODING 101
SWIDTH 810 0
DWIDTH 18 0
BBX 14 22 2 0
BITMAP
FFF8
BFF0
C000
C000
C000
C000
C000
C000
C000
C000
FCF0
3CF0
C000
C000
C000
C000
C000
C000
C000
C000
BFF0
FFFC
ENDCHAR
STARTCHAR 0066
ENCODING 102
SWIDTH 810 0
DWIDTH 18 0
BBX 13 22 2 0
BITMAP
FFF8
BFF0
C000
C000
C000
C000
C000
C000
C000
C000
FCF0
3CF0
C000
C000
C000
C000
C000
C000
C000
C000
8000
8000
ENDCHAR
STARTCHAR 0067
ENCODING 103
SWIDTH 810 0
DWIDTH 18 0
BBX 14 22 2 0
BITMAP
FFF8
BFF0
C000
C000
C000
C000
C000
C000
C000
C000
C0F0
00FC
C00C
C00C
C00C
C00C
C00C
C00C
C00C
C00C
BFF4
FFFC
ENDCHAR
STARTCHAR 0068
ENCODING 104
SWIDTH 810 0
DWIDTH 18 0
BBX 14 22 2 0
BITMAP
0004
8004
C00C
C00C
C00C
C00C
C00C
C00C
C00C
C00C
FCF0
3CFC
C00C
C00C
C00C
C00C
C00C
C00C
C00C
C00C
8004
8000
ENDCHAR
STARTCHAR 0069
ENCODING 105
SWIDTH 810 0
DWIDTH 18 0
BBX 14 22 2 0
BITMAP
FFF8
3FF0
0300
0300
0300
0300
0300
0300
0000
0000
0000
0000
0000
0000
0300
0300
0300
0300
0300
0300
3FF0
7FFC
ENDCHAR
STARTCHAR 006A
ENCODING 106
SWIDTH 810 0
DWIDTH 18 0
BBX 14 22 2 0
BITMAP
0004
0004
000C
000C
000C
000C
000C
000C
000C
000C
0000
000C
C00C
C00C
C00C
C00C
C00C
C00C
C00C
C00C
BFF4
FFFC
ENDCHAR
STARTCHAR 006B
ENCODING 107
SWIDTH 810 0
DWIDTH 18 0
BBX 11 21 2 0
BITMAP
8000
C000
C020
C020
C060
C0E0
C0C0
C0C0
C080
FC00
3C00
C080
C0C0
C0C0
C0E0
C060
C020
C020
C000
8000
8000
ENDCHAR
STARTCHAR 006C
ENCODING 108
SWIDTH 810 0
DWIDTH 18 0
BBX 14 21 2 0
BITMAP
8000
C000
C000
C000
C000
C000
C000
C000
C000
C000
0000
C000
C000
C000
C000
C000
C000
C000
C000
BFF0
FFFC
ENDCHAR
STARTCHAR 006D
ENCODING 109
SWIDTH 810 0
DWIDTH 18 0
BBX 14 22 2 0
BITMAP
0004
8004
C00C
D02C
D02C
D86C
DCEC
CCCC
CCCC
C48C
C000
000C
C00C
C00C
C30C
C30C
C30C
C30C
C30C
C30C
8004
8000
ENDCHAR
STARTCHAR 006E
ENCODING 110
SWIDTH 810 0
DWIDTH 18 0
BBX 14 22 2 0
BITMAP
0004
8004
C00C
D00C
D00C
D80C
DC0C
CC0C
CC0C
C40C
C000
000C
C08C
C0CC
C0CC
C0EC
C06C
C02C
C02C
C00C
8004
8000
ENDCHAR
STARTCHAR 006F
ENCODING 111
SWIDTH 810 0
DWIDTH 18 0
BBX 14 22 2 0
BITMAP
FFFC
BFF4
C00C
C00C
C00C
C00C
C00C
C00C
C00C
C00C
C000
000C
C00C
C00C
C00C
C00C
C00C
C00C
C00C
C00C
BFF4
FFFC
ENDCHAR
STARTCHAR 0070
ENCODING 112
SWIDTH 810 0
DWIDTH 18 0
BBX 14 22 2 0
BITMAP
FFFC
BFF4
C00C
C00C
C00C
C00C
C00C
C00C
C00C
C00C
FCF0
3CF0
C000
C000
C000
C000
C000
C000
C000
C000
8000
8000
ENDCHAR
STARTCHAR 0071
ENCODING 113
SWIDTH 810 0
DWIDTH 18 0
BBX 14 22 2 0
BITMAP
FFFC
BFF4
C00C
C00C
C00C
C00C
C00C
C00C
C00C
C00C
C000
000C
C08C
C0CC
C0CC
C0EC
C06C
C02C
C02C
C00C
BFF4
FFFC
ENDCHAR
STARTCHAR 0072
ENCODING 114
SWIDTH 810 0
DWIDTH 18 0
BBX 14 22 2 0
BITMAP
FFFC
BFF4
C00C
C00C
C00C
C00C
C00C
C00C
C00C
C00C
FCF0
3CF0
C080
C0C0
C0C0
C0E0
C060
C020
C020
C000
8000
8000
ENDCHAR
STARTCHAR 0073
ENCODING 115
SWIDTH 810 0
DWIDTH 18 0
BBX 14 22 2 0
BITMAP
FFF8
BFF0
C000
D000
D000
D800
DC00
CC00
CC00
C400
FCF0
3CFC
008C
00CC
00CC
00EC
006C
002C
002C
000C
3FF4
7FFC
ENDCHAR
STARTCHAR 0074
ENCODING 116
SWIDTH 810 0
DWIDTH 18 0
BBX 13 20 2 2
BITMAP
FFF8
3FF0
0300
0300
0300
0300
0300
0300
0000
0000
0000
0000
0000
0000
0300
0300
0300
0300
0300
0300
ENDCHAR
STARTCHAR 0075
ENCODING 117
SWIDTH 810 0
DWIDTH 18 0
BBX 14 22 2 0
BITMAP
0004
8004
C00C
C00C
C00C
C00C
C00C
C00C
C00C
C00C
C000
000C
C00C
C00C
C00C
C00C
C00C
C00C
C00C
C00C
BFF4
FFFC
ENDCHAR
STARTCHAR 0076
ENCODING 118
SWIDTH 810 0
DWIDTH 18 0
BBX 11 21 2 0
BITMAP
8000
C000
C020
C020
C060
C0E0
C0C0
C0C0
C080
C000
0000
C400
CC00
CC00
DC00
D800
D000
D000
C000
8000
8000
ENDCHAR
STARTCHAR 0077
ENCODING 119
SWIDTH 810 0
DWIDTH 18 0
BBX 14 22 2 0
BITMAP
0004
8004
C30C
C30C
C30C
C30C
C30C
C30C
C00C
C00C
C000
000C
C48C
CCCC
CCCC
DCEC
D86C
D02C
D02C
C00C
8004
8000
ENDCHAR
STARTCHAR 0078
ENCODING 120
SWIDTH 810 0
DWIDTH 18 0
BBX 8 16 5 3
BITMAP
81
81
C3
E7
66
66
24
00
00
24
66
66
E7
C3
81
81
ENDCHAR
STARTCHAR 0079
ENCODING 121
SWIDTH 810 0
DWIDTH 18 0
BBX 8 17 5 3
BITMAP
81
81
C3
E7
66
66
24
00
00
00
00
18
18
18
18
18
18
ENDCHAR
STARTCHAR 007A
ENCODING 122
SWIDTH 810 0
DWIDTH 18 0
BBX 14 22 2 0
BITMAP
FFF8
3FF0
0000
0020
0020
0060
00E0
00C0
00C0
0080
0000
0000
0400
0C00
0C00
1C00
1800
1000
1000
0000
3FF0
7FFC
ENDCHAR
STARTCHAR 007C
ENCODING 124
SWIDTH 810 0
DWIDTH 18 0
BBX 2 18 8 2
BITMAP
C0
C0
C0
C0
C0
C0
00
00
00
00
00
00
C0
C0
C0
C0
C0
C0
ENDCHAR
STARTCHAR 007E
ENCODING 126
SWIDTH 810 0
DWIDTH 18 0
BBX 14 22 2 0
BITMAP
FFFC
BFF4
C30C
D32C
D32C
DB6C
DFEC
CFCC
CCCC
C48C
FCF0
3CFC
C48C
CCCC
CFCC
DFEC
DB6C
D32C
D32C
C30C
BFF4
FFFC
ENDCHAR
STARTCHAR 00A5
ENCODING 165
SWIDTH 810 0
DWIDTH 18 0
BBX 10 17 4 3
BITMAP
4080
4080
6180
7380
3300
3300
1200
F3C0
F3C0
0000
0000
0C00
0C00
0C00
0C00
0C00
0C00
ENDCHAR
STARTCHAR 00A6
ENCODING 166
SWIDTH 810 0
DWIDTH 18 0
BBX 2 18 8 2
BITMAP
C0
C0
C0
C0
C0
C0
00
00
00
00
00
00
C0
C0
C0
C0
C0
C0
ENDCHAR
STARTCHAR 00B0
ENCODING 176
SWIDTH 810 0
DWIDTH 18 0
BBX 14 12 2 10
BITMAP
FFFC
BFF4
C00C
C00C
C00C
C00C
C00C
C00C
C00C
C00C
FCF0
3CF0
ENDCHAR
STARTCHAR 00B1
ENCODING 177
SWIDTH 810 0
DWIDTH 18 0
BBX 13 20 3 0
BITMAP
0600
0600
0600
0600
0600
0600
0000
0000
79E0
79E0
0000
0000
0600
0600
0600
0600
0600
0600
7FE0
FFF8
ENDCHAR
ENDFONT
